# xmcd
# Track frame offsets:
# 150
# 13360
# 26077
# 37322
# 49867
# 62465
# 75280
# 87437
# 97932
# 109932
# 123077
# 134285
# 147197
# 160172
# 172882
# 185912
# 197792
# 208895
# 219072
# 231160
# 243305
# 256297
#
# Disc length: 3584 seconds
# Revision: 2
# Processed by: cddbd v1.4PL0 Copyright (c) Steve Scherf et al.
# Submitted via: VisiTrax 2.9.5.180 - For more info visit www.synapsa.com
#
DISCID=330dfe16
DTITLE=Mary Wells - 22 Greatest Hits
DYEAR=1964
DGENRE=Pop
TTITLE0=Bye Bye Baby
TTITLE1=I Don't Want to Take a Chance
TTITLE2=One Who Really Love You, The
TTITLE3=You Beat Me to the Punch
TTITLE4=Two Lovers
TTITLE5=Laughing Boy
TTITLE6=Your Old Standby
TTITLE7=Old Love (Lets Try It Again)
TTITLE8=Oh Little Boy (What Did You Do to Me)
TTITLE9=What Love Has Joined Together
TTITLE10=You Lost the Sweetest Boy
TTITLE11=What's Easy For Two Is So Hard For One
TTITLE12=My Guy
TTITLE13=Two Wrongs Don't Make a Right
TTITLE14=Everybody Needs Love
TTITLE15=I'll Be Available
TTITLE16=One Block From Heaven
TTITLE17=When I'm Gone
TTITLE18=He's the One I Love
TTITLE19=Whisper You Love Me Boy
TTITLE20=Does He Love Me
TTITLE21=Was It Worth It
EXTD=(p) 1986 Motown Record Corp.\n\nCorrections submitted by Larry@AustinV
EXTD=iews.com
EXTT0=
EXTT1=
EXTT2=
EXTT3=
EXTT4=
EXTT5=
EXTT6=
EXTT7=
EXTT8=
EXTT9=
EXTT10=
EXTT11=
EXTT12=
EXTT13=
EXTT14=
EXTT15=
EXTT16=
EXTT17=
EXTT18=
EXTT19=
EXTT20=
EXTT21=
PLAYORDER=
